<svg width="80" height="80" aria-hidden="true" class="sdp-card__icon"><svg xmlns="http://www.w3.org/2000/svg" viewBox="0 0 48 48"><rect width="48" height="48" class="dark:[fill:#fff]" rx="6"/><path fill="#fff" d="M25.074 21.3c0 1.692-.468 2.208-1.2 2.208s-1.174-.52-1.188-2.208c.012-1.692.456-2.208 1.188-2.208s1.2.508 1.2 2.208m6.839 2.2c.732 0 1.2-.516 1.2-2.208s-.468-2.208-1.2-2.208-1.176.516-1.188 2.208c.012 1.696.468 2.208 1.188 2.208" class="dark:[fill:#000]"/><path fill="#fff" fill-rule="evenodd" d="M24 35a14 14 0 1 0-14-14 14 14 0 0 0 14 14m-3.774-13.7c0 3.048 1.62 4.3 3.648 4.3 2.052 0 3.648-1.248 3.66-4.3-.012-3.048-1.608-4.3-3.66-4.3-2.028 0-3.648 1.248-3.648 4.3m-4.2 4.284c2.04 0 3.564-1.2 3.564-2.832 0-1.1-.732-1.956-2.184-2.22l1.632-1.4a.4.4 0 0 0 .12-.276v-1.472a.265.265 0 0 0-.276-.3h-5.64a.18.18 0 0 0-.192.168V18.9a.18.18 0 0 0 .192.168l3.156-.012-2.04 1.7a.2.2 0 0 0-.036.276l.636.9a.28.28 0 0 0 .312.156c1.248-.228 1.8.24 1.8.66 0 .516-.528.768-1.152.768a2.8 2.8 0 0 1-1.86-.768c-.06-.06-.168-.048-.24.06l-1.056 1.344a.208.208 0 0 0 .024.324 4.54 4.54 0 0 0 3.244 1.104Zm15.883.012c-2.028 0-3.648-1.248-3.648-4.3s1.62-4.3 3.648-4.3c2.052 0 3.648 1.248 3.66 4.3-.008 3.048-1.604 4.296-3.656 4.296Z" class="dark:[fill:#000]"/><path fill="#00d639" d="M13 41a3 3 0 1 0-3-3 3 3 0 0 0 3 3"/></svg></svg>