<?xml version="1.0" encoding="utf-8"?>
<!-- Generator: Adobe Illustrator 25.4.1, SVG Export Plug-In . SVG Version: 6.00 Build 0)  -->
<svg version="1.1" id="Layer_1" xmlns="http://www.w3.org/2000/svg" xmlns:xlink="http://www.w3.org/1999/xlink" x="0px" y="0px"
	 viewBox="0 0 30 30" style="enable-background:new 0 0 30 30;" xml:space="preserve">
<style type="text/css">
	.st0{fill:#00D639;}
</style>
<g id="info">
	<path class="st0" d="M26,30H8c-0.6,0-1-0.4-1-1s0.4-1,1-1h18c1.1,0,2-0.9,2-2V4c0-1.1-0.9-2-2-2H4C2.9,2,2,2.9,2,4v22
		c0,1.1,0.9,2,2,2c0.6,0,1,0.4,1,1s-0.4,1-1,1c-2.2,0-4-1.8-4-4V4c0-2.2,1.8-4,4-4h22c2.2,0,4,1.8,4,4v22C30,28.2,28.2,30,26,30z
		 M18,24c-2.2,0-4-1.8-4-4v-7h-2c-0.6,0-1-0.4-1-1s0.4-1,1-1h3c0.6,0,1,0.4,1,1v8c0,1.1,0.9,2,2,2c0.5,0,1-0.2,1.3-0.5
		c0.4-0.4,1-0.3,1.4,0.1c0.4,0.4,0.3,1-0.1,1.4l0,0C19.9,23.6,19,24,18,24z M15,7c-0.6,0-1,0.4-1,1s0.4,1,1,1s1-0.4,1-1S15.6,7,15,7
		z"/>
</g>
</svg>
