<?xml version="1.0" encoding="utf-8"?>
<!-- Generator: Adobe Illustrator 25.4.1, SVG Export Plug-In . SVG Version: 6.00 Build 0)  -->
<svg version="1.1" id="Layer_1" xmlns="http://www.w3.org/2000/svg" xmlns:xlink="http://www.w3.org/1999/xlink" x="0px" y="0px"
	 viewBox="0 0 30 30" style="enable-background:new 0 0 30 30;" xml:space="preserve">
<style type="text/css">
	.st0{fill:#00D639;}
</style>
<g id="glasses">
	<path class="st0" d="M26,30H8c-0.6,0-1-0.4-1-1s0.4-1,1-1h18c1.1,0,2-0.9,2-2V4c0-1.1-0.9-2-2-2H4C2.9,2,2,2.9,2,4v22
		c0,1.1,0.9,2,2,2c0.6,0,1,0.4,1,1s-0.4,1-1,1c-2.2,0-4-1.8-4-4V4c0-2.2,1.8-4,4-4h22c2.2,0,4,1.8,4,4v22C30,28.2,28.2,30,26,30z
		 M21,25c-2.5,0-4.6-1.8-5-4.3c-0.7-0.2-1.4-0.2-2.1,0c-0.4,2.7-2.9,4.6-5.7,4.2C5.8,24.6,4,22.5,4,20v0c0-0.2,0-0.3,0-0.5
		c0.1-1.6,0.8-5.1,1.5-9.2c0.2-1,0.3-1.9,0.5-2.5c0.1-1.2,0.9-2.2,2-2.7c0.5-0.2,1.1,0,1.3,0.5c0.2,0.5,0,1.1-0.5,1.3
		C8.4,7.1,8.1,7.4,8,8.2c-0.1,0.6-0.3,1.5-0.5,2.5c-0.3,1.4-0.6,3.2-0.9,4.9c2.4-1.3,5.5-0.4,6.8,2c0.2,0.3,0.3,0.7,0.4,1.1
		c0.8-0.2,1.6-0.2,2.4,0c0.7-2.7,3.5-4.2,6.2-3.5c0.4,0.1,0.7,0.2,1,0.4c-0.3-1.7-0.6-3.5-0.9-4.9c-0.2-1-0.4-1.9-0.5-2.5
		c-0.1-0.8-0.4-1.1-0.8-1.3c-0.5-0.2-0.7-0.8-0.5-1.3c0.2-0.5,0.8-0.7,1.3-0.5c1.1,0.5,1.9,1.5,2,2.7c0.1,0.6,0.3,1.5,0.5,2.5
		c0.8,4.1,1.4,7.6,1.5,9.2c0,0.2,0,0.3,0,0.5v0C26,22.8,23.8,25,21,25z M18,20c0,1.7,1.4,3,3,3s3-1.4,3-3l0,0v0c0-0.1,0-0.1,0-0.2
		c-0.1-1.7-1.6-2.9-3.2-2.8C19.2,17.1,18,18.4,18,20C18,20,18,20,18,20z M6,20c0,1.7,1.3,3,3,3s3-1.3,3-3l0,0c0,0,0,0,0,0
		c0-1.7-1.4-3-3-3c-1.6,0-2.9,1.2-3,2.8C6,19.9,6,19.9,6,20L6,20z"/>
</g>
</svg>
