<?xml version="1.0" encoding="utf-8"?>
<!-- Generator: Adobe Illustrator 25.4.1, SVG Export Plug-In . SVG Version: 6.00 Build 0)  -->
<svg version="1.1" id="Layer_1" xmlns="http://www.w3.org/2000/svg" xmlns:xlink="http://www.w3.org/1999/xlink" x="0px" y="0px"
	 viewBox="0 0 30 30" style="enable-background:new 0 0 30 30;" xml:space="preserve">
<style type="text/css">
	.st0{fill:#00D639;}
</style>
<g id="idea">
	<path class="st0" d="M26,30H13c-1.7,0-3-1.3-3-3v-2c0-1.1,0.9-2,2-2h7c0.6,0,1,0.4,1,1s-0.4,1-1,1h-7v2c0,0.6,0.4,1,1,1h13
		c1.1,0,2-0.9,2-2V4c0-1.1-0.9-2-2-2H4C2.9,2,2,2.9,2,4v22c0,1.1,0.9,2,2,2h4c0.6,0,1,0.4,1,1s-0.4,1-1,1H4c-2.2,0-4-1.8-4-4V4
		c0-2.2,1.8-4,4-4h22c2.2,0,4,1.8,4,4v22C30,28.2,28.2,30,26,30z M19,22c-0.6,0-1-0.4-1-1c0,0,0,0,0,0v-1.5c0-1.2,0.4-2.5,1.3-3.4
		c2.3-2.4,2.3-6.2-0.1-8.5c-0.1-0.1-0.2-0.2-0.4-0.3c-1.4-1.1-3.2-1.6-5-1.2c-3.2,0.7-5.3,3.8-4.7,7.1c0.2,1.1,0.8,2.1,1.5,2.9
		c0.9,0.9,1.3,2.1,1.3,3.4V21c0,0.6-0.4,1-1,1s-1-0.4-1-1v-1.5c0-0.7-0.3-1.5-0.8-2c-3.1-3.2-3-8.3,0.2-11.3s8.3-3,11.3,0.2
		c3,3.1,3,8,0,11.1c-0.5,0.5-0.7,1.2-0.7,2V21C20,21.6,19.6,22,19,22C19,22,19,22,19,22z M15,17c-0.6,0-1-0.4-1-1
		c0-0.2,0.1-0.4,0.2-0.6l1-1.4H13c-0.6,0-1-0.4-1-1c0-0.2,0.1-0.4,0.2-0.6l2-3c0.3-0.5,0.9-0.6,1.4-0.3c0.5,0.3,0.6,0.9,0.3,1.4
		c0,0,0,0,0,0l-1,1.4H17c0.6,0,1,0.4,1,1c0,0.2-0.1,0.4-0.2,0.6l-2,3C15.6,16.8,15.3,17,15,17z"/>
</g>
</svg>
