<?xml version="1.0" encoding="utf-8"?>
<!-- Generator: Adobe Illustrator 25.4.1, SVG Export Plug-In . SVG Version: 6.00 Build 0)  -->
<svg version="1.1" id="Layer_1" xmlns="http://www.w3.org/2000/svg" xmlns:xlink="http://www.w3.org/1999/xlink" x="0px" y="0px"
	 viewBox="0 0 30 30" style="enable-background:new 0 0 30 30;" xml:space="preserve">
<style type="text/css">
	.st0{fill:#00D639;}
</style>
<g id="addons">
</g>
<g id="app-active_x0D_">
</g>
<g id="processing_x0D_">
</g>
<g id="calculator_x0D_">
</g>
<g id="cloud-service_x0D_">
</g>
<g id="financials_x0D_">
</g>
<g id="globe">
</g>
<g id="incline">
</g>
<g id="lock">
</g>
<g id="page">
	<path class="st0" d="M26,30H4c-2.2,0-4-1.8-4-4V4c0-2.2,1.8-4,4-4h18c0.5,0,1,0.4,1,1s-0.5,1-1,1H4C2.9,2,2,2.9,2,4v22
		c0,1.1,0.9,2,2,2h22c1.1,0,2-0.9,2-2V4c0-1.1-0.9-2-2-2c-0.5,0-1-0.5-1-1s0.5-1,1-1c2.2,0,4,1.8,4,4v22C30,28.2,28.2,30,26,30z
		 M23,25c-0.5,0-1-0.5-1-1V14h-6c-0.6,0-1-0.4-1-1V7H8v17c0,0.5-0.4,1-1,1s-1-0.5-1-1V6c0-0.6,0.4-1,1-1h9l0,0l0,0
		c0.1,0,0.3,0,0.4,0.1c0.1,0.1,0.2,0.1,0.3,0.2l7,7c0.1,0.1,0.2,0.2,0.2,0.3c0,0.1,0.1,0.2,0.1,0.4l0,0l0,0v11
		C24,24.5,23.5,25,23,25z M17,12h3.6L17,8.4V12z M19,25h-8c-0.6,0-1-0.5-1-1s0.4-1,1-1h8c0.5,0,1,0.5,1,1S19.5,25,19,25z M19,20h-8
		c-0.6,0-1-0.5-1-1s0.4-1,1-1h8c0.5,0,1,0.5,1,1S19.5,20,19,20z"/>
</g>
<g id="people-network">
</g>
<g id="savings">
</g>
<g id="smartphone">
</g>
<g id="support">
</g>
<g id="tab">
</g>
</svg>
