<?xml version="1.0" encoding="utf-8"?>
<!-- Generator: Adobe Illustrator 25.4.1, SVG Export Plug-In . SVG Version: 6.00 Build 0)  -->
<svg version="1.1" id="Layer_1" xmlns="http://www.w3.org/2000/svg" xmlns:xlink="http://www.w3.org/1999/xlink" x="0px" y="0px"
	 viewBox="0 0 30 30" style="enable-background:new 0 0 30 30;" xml:space="preserve">
<style type="text/css">
	.st0{fill:#00D639;}
</style>
<g id="download">
	<path class="st0" d="M26,30H8c-0.6,0-1-0.4-1-1s0.4-1,1-1h18c1.1,0,2-0.9,2-2V4c0-1.1-0.9-2-2-2H4C2.9,2,2,2.9,2,4v22
		c0,1.1,0.9,2,2,2c0.6,0,1,0.4,1,1s-0.4,1-1,1c-2.2,0-4-1.8-4-4V4c0-2.2,1.8-4,4-4h22c2.2,0,4,1.8,4,4v22C30,28.2,28.2,30,26,30z
		 M22.2,24H7.8c-1-0.1-1.9-1-1.8-2v-3c0-0.6,0.4-1,1-1s1,0.4,1,1v3h14l0-3c0-0.6,0.4-1,1-1s1,0.4,1,1v3C24.1,23,23.2,23.9,22.2,24z
		 M15,19c-0.3,0-0.5-0.1-0.7-0.3l-6-6c-0.4-0.4-0.4-1,0-1.4c0.4-0.4,1-0.4,1.4,0l4.3,4.3V6c0-0.6,0.4-1,1-1s1,0.4,1,1v9.6l4.3-4.3
		c0.4-0.4,1-0.4,1.4,0c0.4,0.4,0.4,1,0,1.4l-6,6C15.5,18.9,15.3,19,15,19z"/>
</g>
</svg>
