<?xml version="1.0" encoding="utf-8"?>
<!-- Generator: Adobe Illustrator 25.4.1, SVG Export Plug-In . SVG Version: 6.00 Build 0)  -->
<svg version="1.1" id="building_and_people_" xmlns="http://www.w3.org/2000/svg" xmlns:xlink="http://www.w3.org/1999/xlink"
	 x="0px" y="0px" viewBox="0 0 30 30" style="enable-background:new 0 0 30 30;" xml:space="preserve">
<style type="text/css">
	.st0{fill:#00D639;}
</style>
<path class="st0" d="M26,30h-4c-1.7,0-3-1.3-3-3v-2c0-2.2-1.8-4-4-4s-4,1.8-4,4c0,0.6-0.4,1-1,1s-1-0.4-1-1c0-3.3,2.7-6,6-6h0
	c1.3,0,2.4-0.8,2.9-2.1c0.1-0.4,0.2-0.8,0.1-1.2c-0.1-0.8-0.5-1.6-1.2-2.1c-1.3-1-3.2-0.7-4.2,0.7C12,15,11.9,16,12.1,16.9
	c0.2,0.5-0.1,1.1-0.6,1.3c-0.5,0.2-1.1-0.1-1.3-0.6c-0.9-2.6,0.6-5.4,3.2-6.3c0.8-0.3,1.7-0.3,2.6-0.1V7H7v18c0,0.6-0.4,1-1,1
	s-1-0.4-1-1V7c0-1.1,0.9-2,2-2h9c1.1,0,2,0.9,2,2v1h5c1.1,0,2,0.9,2,2v15c0,0.6-0.4,1-1,1s-1-0.4-1-1V10h-5v2c2.2,1.7,2.7,4.8,1,7
	c-0.2,0.3-0.5,0.6-0.9,0.9c1.8,1.1,2.9,3,2.9,5.1v2c0,0.6,0.4,1,1,1h4c1.1,0,2-0.9,2-2V4c0-1.1-0.9-2-2-2H4C2.9,2,2,2.9,2,4v22
	c0,1.1,0.9,2,2,2h13c0.6,0,1,0.4,1,1s-0.4,1-1,1H4c-2.2,0-4-1.8-4-4V4c0-2.2,1.8-4,4-4h22c2.2,0,4,1.8,4,4v22C30,28.2,28.2,30,26,30
	z"/>
</svg>
